<?xml version="1.0" encoding="UTF-8" standalone="no"?>
<!-- Created with Inkscape (http://www.inkscape.org/) -->

<svg
   xmlns:dc="http://purl.org/dc/elements/1.1/"
   xmlns:cc="http://creativecommons.org/ns#"
   xmlns:rdf="http://www.w3.org/1999/02/22-rdf-syntax-ns#"
   xmlns:svg="http://www.w3.org/2000/svg"
   xmlns="http://www.w3.org/2000/svg"
   version="1.1"
   width="744.09003"
   height="744.09003"
   id="svg2">
  <defs
     id="defs4" />
  <metadata
     id="metadata7">
    <rdf:RDF>
      <cc:Work
         rdf:about="">
        <dc:format>image/svg+xml</dc:format>
        <dc:type
           rdf:resource="http://purl.org/dc/dcmitype/StillImage" />
        <dc:title></dc:title>
      </cc:Work>
    </rdf:RDF>
  </metadata>
  <g
     transform="translate(0,-308.27218)"
     id="layer1">
    <rect
       width="214.89198"
       height="173.53862"
       ry="42.963444"
       x="273.00513"
       y="394.87109"
       id="rect2985"
       style="fill:#666666;fill-rule:evenodd;stroke:#000000;stroke-width:1.14559555px;stroke-linecap:butt;stroke-linejoin:miter;stroke-opacity:1" />
    <path
       d="M 631.57894,-29.594179 606.64087,65.25495 581.70279,160.10408 512.03007,91.08251 442.35736,22.060936 536.96815,-3.7666248 z"
       transform="matrix(0.80984973,0.15379075,0.08082818,0.79128062,207.61184,260.80893)"
       id="path2987"
       style="fill:#666666" />
    <rect
       width="44.73148"
       height="147.43495"
       rx="0"
       ry="22.395184"
       x="706.74615"
       y="-177.78741"
       transform="matrix(0.70076184,0.71339529,-0.73300964,0.68021825,0,0)"
       id="rect2991"
       style="fill:#666666" />
    <rect
       width="485.71429"
       height="32.330826"
       ry="16.165413"
       x="136.8421"
       y="674.91864"
       id="rect2995"
       style="fill:#666666" />
    <rect
       width="157.89838"
       height="32.330723"
       ry="16.165361"
       x="685.7948"
       y="-394.13156"
       transform="matrix(0.00816538,0.99996666,-0.99999963,8.6289879e-4,0,0)"
       id="rect2995-0"
       style="fill:#666666" />
    <rect
       width="157.89838"
       height="32.330723"
       ry="16.165361"
       x="682.9798"
       y="-617.44794"
       transform="matrix(0.00816538,0.99996666,-0.99999963,8.6289879e-4,0,0)"
       id="rect2995-0-0"
       style="fill:#666666" />
    <rect
       width="183.45863"
       height="154.88722"
       ry="38.345863"
       x="288.7218"
       y="852.36224"
       id="rect2985-2"
       style="fill:#666666;fill-rule:evenodd;stroke:#000000;stroke-width:1px;stroke-linecap:butt;stroke-linejoin:miter;stroke-opacity:1" />
    <rect
       width="183.45863"
       height="154.88722"
       ry="38.345863"
       x="523.30829"
       y="850.85846"
       id="rect2985-2-4"
       style="fill:#666666;fill-rule:evenodd;stroke:#000000;stroke-width:1px;stroke-linecap:butt;stroke-linejoin:miter;stroke-opacity:1" />
    <rect
       width="183.45863"
       height="154.88722"
       ry="38.345863"
       x="50.375946"
       y="854.6178"
       id="rect2985-2-2"
       style="fill:#666666;fill-rule:evenodd;stroke:#000000;stroke-width:1px;stroke-linecap:butt;stroke-linejoin:miter;stroke-opacity:1" />
    <rect
       width="157.89838"
       height="32.330723"
       ry="16.165361"
       x="680.33228"
       y="-163.34906"
       transform="matrix(0.00816538,0.99996666,-0.99999963,8.6289879e-4,0,0)"
       id="rect2995-0-0-4"
       style="fill:#666666" />
    <rect
       width="157.89838"
       height="32.330723"
       ry="16.165361"
       x="585.09961"
       y="-394.2019"
       transform="matrix(0.00816538,0.99996666,-0.99999963,8.6289879e-4,0,0)"
       id="rect2995-0-2"
       style="fill:#666666" />
  </g>
</svg>
